<?xml version="1.0" encoding="UTF-8"?><svg xmlns="http://www.w3.org/2000/svg" xmlns:xlink="http://www.w3.org/1999/xlink" contentScriptType="text/ecmascript" width="375" zoomAndPan="magnify" contentStyleType="text/css" viewBox="0 0 375 374.999991" height="374.999991" preserveAspectRatio="xMidYMid meet" version="1.0"><defs><clipPath id="clip-0"><path d="M 130 113 L 216 113 L 216 262.5 L 130 262.5 Z M 130 113 " clip-rule="nonzero"/></clipPath></defs><path fill="rgb(6.269836%, 5.879211%, 5.099487%)" d="M 246.394531 128.835938 C 246.394531 133.273438 242.800781 136.867188 238.371094 136.867188 C 233.941406 136.867188 230.351562 133.273438 230.351562 128.835938 C 230.351562 124.394531 233.941406 120.800781 238.371094 120.800781 C 242.800781 120.800781 246.394531 124.394531 246.394531 128.835938 " fill-opacity="1" fill-rule="nonzero"/><path fill="rgb(6.269836%, 5.879211%, 5.099487%)" d="M 246.894531 170.554688 C 246.894531 174.992188 243.304688 178.589844 238.875 178.589844 C 234.441406 178.589844 230.851562 174.992188 230.851562 170.554688 C 230.851562 166.117188 234.441406 162.519531 238.875 162.519531 C 243.304688 162.519531 246.894531 166.117188 246.894531 170.554688 " fill-opacity="1" fill-rule="nonzero"/><g clip-path="url(#clip-0)"><path fill="rgb(6.269836%, 5.879211%, 5.099487%)" d="M 215.441406 157.285156 C 212.300781 129.378906 192.464844 115.488281 171.246094 113.691406 C 157.398438 112.519531 139.246094 117.625 132.480469 131.273438 C 127.902344 140.507812 130.222656 154.953125 139.964844 160.078125 C 141.976562 161.308594 144.34375 162.019531 146.871094 162.019531 C 154.210938 162.019531 160.160156 156.058594 160.160156 148.710938 C 160.160156 141.363281 154.210938 135.402344 146.871094 135.402344 C 145.941406 135.402344 145.03125 135.5 144.152344 135.683594 C 144.449219 133.265625 145.441406 130.929688 147.066406 129.027344 C 156.101562 118.445312 175.386719 121.609375 184.492188 128.777344 C 212.515625 150.847656 198.210938 194.722656 180.808594 219.230469 C 174.46875 228.160156 167.03125 236.339844 158.796875 243.550781 C 153.460938 248.222656 148.28125 252.5 142.3125 256.332031 C 139.238281 258.308594 136.515625 260.171875 133.40625 261.996094 C 133.523438 262.167969 133.636719 262.339844 133.746094 262.515625 C 138.164062 260.632812 142.574219 258.671875 146.824219 256.382812 C 179.125 238.96875 219.765625 195.699219 215.441406 157.285156 " fill-opacity="1" fill-rule="nonzero"/></g></svg>