<svg xmlns="http://www.w3.org/2000/svg" width="375" viewBox="0 0 375 375" height="375" version="1.0"><path stroke-linecap="round" transform="matrix(9.00938 0 0 8.74052 63.878 28.924)" fill="none" d="M 0.500044 0.000193429 L 26.971576 0.000193429" stroke="#000"/><path stroke-linecap="round" transform="matrix(9.00938 0 0 8.74052 63.878 83.585)" fill="none" d="M 0.500044 0.000108528 L 26.971576 0.000108528" stroke="#000"/><path stroke-linecap="round" transform="matrix(9.00938 0 0 8.74052 63.878 83.585)" fill="none" d="M 0.500044 0.000108528 L 26.971576 0.000108528" stroke="#000"/><path stroke-linecap="round" transform="matrix(9.00938 0 0 8.74052 63.878 138.246)" fill="none" d="M 0.500044 0.0000227479 L 26.971576 0.0000227479" stroke="#000"/><path stroke-linecap="round" transform="matrix(9.00938 0 0 8.74052 63.878 192.907)" fill="none" d="M 0.500044 -0.0000594625 L 26.971576 -0.0000594625" stroke="#000"/><path stroke-linecap="round" transform="matrix(9.00938 0 0 8.74052 63.878 247.568)" fill="none" d="M 0.500044 -0.00014332 L 26.971576 -0.00014332" stroke="#000"/><path stroke-linecap="round" transform="matrix(9.00938 0 0 8.74052 63.878 192.907)" fill="none" d="M 0.500044 -0.0000594625 L 26.971576 -0.0000594625" stroke="#000"/><path fill="#FF5757" d="M 187.367188 260.257812 C 174.730469 260.257812 164.492188 270.5 164.492188 283.132812 C 164.492188 295.765625 174.730469 306.007812 187.367188 306.007812 C 200 306.007812 210.242188 295.765625 210.242188 283.132812 C 210.242188 270.5 200 260.257812 187.367188 260.257812 Z M 187.367188 260.257812"/><path stroke-linecap="round" transform="matrix(9.0124 0 0 8.74052 140.687 283.023)" fill="none" d="M 0.499824 0.00000659975 L 9.902243 0.00000659975" stroke="#FF5757"/></svg>